<svg width="26" height="22" viewBox="0 0 26 22" fill="none" xmlns="http://www.w3.org/2000/svg">
<path d="M10.0804 14.9758C10.0804 16.1188 9.49 17.9891 8.0925 17.9891C6.695 17.9891 6.10458 16.1188 6.10458 14.9758C6.10458 13.8328 6.695 11.9625 8.0925 11.9625C9.49 11.9625 10.0804 13.8328 10.0804 14.9758ZM26 12.2141C26 13.9586 25.8267 15.807 25.0521 17.4094C22.9992 21.5984 17.355 21.5 13.3142 21.5C9.20833 21.5 3.22833 21.6477 1.09417 17.4094C0.303333 15.8234 0 13.9586 0 12.2141C0 9.92266 0.752917 7.75703 2.24792 6.00156C1.96625 5.1375 1.83083 4.22969 1.83083 3.33281C1.83083 2.15703 2.09625 1.56641 2.62167 0.5C5.07542 0.5 6.64625 0.992188 8.515 2.46875C10.0858 2.09141 11.7 1.92188 13.3196 1.92188C14.7821 1.92188 16.2554 2.08047 17.6746 2.425C19.5162 0.964844 21.0871 0.5 23.5138 0.5C24.0446 1.56641 24.3046 2.15703 24.3046 3.33281C24.3046 4.22969 24.1638 5.12109 23.8875 5.96875C25.3771 7.74063 26 9.92266 26 12.2141ZM22.5171 14.9758C22.5171 12.575 21.0708 10.4586 18.5358 10.4586C17.5121 10.4586 16.5317 10.6445 15.5025 10.7867C14.6954 10.9125 13.8883 10.9617 13.0596 10.9617C12.2363 10.9617 11.4292 10.9125 10.6167 10.7867C9.60375 10.6445 8.6125 10.4586 7.58333 10.4586C5.04833 10.4586 3.60208 12.575 3.60208 14.9758C3.60208 19.7773 7.95708 20.5156 11.7487 20.5156H14.3596C18.1675 20.5156 22.5171 19.7828 22.5171 14.9758ZM18.0429 11.9625C16.6454 11.9625 16.055 13.8328 16.055 14.9758C16.055 16.1188 16.6454 17.9891 18.0429 17.9891C19.4404 17.9891 20.0308 16.1188 20.0308 14.9758C20.0308 13.8328 19.4404 11.9625 18.0429 11.9625Z" fill="white"/>
</svg>
