<svg width="34" height="42" viewBox="0 0 34 42" fill="none" xmlns="http://www.w3.org/2000/svg">
<path d="M30.0816 42H2.98512C1.33655 42 0.00012207 40.7243 0.00012207 39.1507V10.7852C0.00012207 9.21159 1.33655 7.93591 2.98512 7.93591H30.0818C31.7303 7.93591 33.0668 9.21159 33.0668 10.7852V39.1507C33.0668 40.7243 31.7302 42 30.0816 42Z" fill="#C3C3C3"/>
<path d="M30.0816 41.1072H2.98512C1.33655 41.1072 0.00012207 39.8316 0.00012207 38.2579V9.89247C0.00012207 8.31883 1.33655 7.04315 2.98512 7.04315H30.0818C31.7303 7.04315 33.0668 8.31883 33.0668 9.89247V38.2579C33.0668 39.8316 31.7302 41.1072 30.0816 41.1072Z" fill="#C3C3C3"/>
<path d="M30.0816 40.2145H2.98512C1.33655 40.2145 0.00012207 38.9388 0.00012207 37.3651V8.99971C0.00012207 7.42607 1.33655 6.15039 2.98512 6.15039H30.0818C31.7303 6.15039 33.0668 7.42607 33.0668 8.99971V37.3651C33.0668 38.9388 31.7302 40.2145 30.0816 40.2145Z" fill="#C3C3C3"/>
<path d="M30.0816 39.3217H2.98512C1.33655 39.3217 0.00012207 38.046 0.00012207 36.4724V8.10695C0.00012207 6.53331 1.33655 5.25763 2.98512 5.25763H30.0818C31.7303 5.25763 33.0668 6.53331 33.0668 8.10695V36.4724C33.0668 38.046 31.7302 39.3217 30.0816 39.3217Z" fill="#C3C3C3"/>
<path d="M30.0816 38.4289H2.98512C1.33655 38.4289 0.00012207 37.1532 0.00012207 35.5796V7.21416C0.00012207 5.64051 1.33655 4.36484 2.98512 4.36484H30.0818C31.7303 4.36484 33.0668 5.64051 33.0668 7.21416V35.5796C33.0668 37.1532 31.7302 38.4289 30.0816 38.4289Z" fill="#C3C3C3"/>
<path d="M30.0816 37.5362H2.98512C1.33655 37.5362 0.00012207 36.2605 0.00012207 34.6868V6.3214C0.00012207 4.74775 1.33655 3.47208 2.98512 3.47208H30.0818C31.7303 3.47208 33.0668 4.74775 33.0668 6.3214V34.6868C33.0668 36.2605 31.7302 37.5362 30.0816 37.5362Z" fill="white"/>
<path d="M0 11.9408V34.0595C0 35.6332 1.33642 36.9088 2.985 36.9088H30.0816C31.7302 36.9088 33.0666 35.6332 33.0666 34.0595V11.9408H0Z" fill="white"/>
<path d="M13.3396 13.528C13.4343 13.6185 13.4816 13.7312 13.4816 13.8667V16.7119C13.4816 16.9739 13.4319 17.1952 13.3326 17.3758C13.2332 17.5565 13.1092 17.7033 12.96 17.8161C12.8111 17.9291 12.6488 18.0104 12.4739 18.06C12.2988 18.1098 12.1379 18.1346 11.9913 18.1346H10.0041C9.72962 18.1346 9.49778 18.0871 9.30862 17.9924C9.11934 17.8974 8.96548 17.7789 8.8474 17.6367C8.72908 17.4944 8.64397 17.341 8.59183 17.176C8.5398 17.0113 8.51373 16.8565 8.51373 16.7119C8.51373 16.5764 8.56097 16.4637 8.65578 16.3732C8.75025 16.283 8.86856 16.2377 9.01061 16.2377C9.15254 16.2377 9.27062 16.2829 9.36544 16.3732C9.4599 16.4637 9.50737 16.5764 9.50737 16.7119C9.50737 16.7617 9.5145 16.8147 9.52865 16.8712C9.54291 16.9276 9.56887 16.9795 9.60674 17.0268C9.64451 17.0743 9.69548 17.1128 9.75931 17.142C9.82315 17.1715 9.90487 17.1861 10.0041 17.1861H11.9913C12.0432 17.1861 12.0988 17.1792 12.158 17.1657C12.2172 17.1522 12.2716 17.1273 12.3213 17.0911C12.371 17.0551 12.4111 17.0065 12.4419 16.9455C12.4727 16.8846 12.488 16.8068 12.488 16.7118V13.8666C12.488 13.7311 12.5353 13.6184 12.63 13.5279C12.7247 13.4377 12.8429 13.3924 12.9848 13.3924C13.1267 13.3925 13.2449 13.4377 13.3396 13.528Z" fill="white"/>
<path d="M18.0094 13.4671C18.1843 13.5168 18.3464 13.5981 18.4955 13.711C18.6445 13.824 18.7687 13.9707 18.8681 14.1513C18.9675 14.332 19.017 14.5534 19.017 14.8152V17.6604C19.017 17.7959 18.9698 17.9088 18.8751 17.9991C18.7804 18.0895 18.6622 18.1346 18.5203 18.1346C18.3783 18.1346 18.26 18.0895 18.1654 17.9991C18.0707 17.9087 18.0235 17.7959 18.0235 17.6604V16.2377H15.0428V17.6604C15.0428 17.7959 14.9955 17.9088 14.9009 17.9991C14.8061 18.0895 14.688 18.1346 14.5461 18.1346C14.404 18.1346 14.2857 18.0895 14.1912 17.9991C14.0964 17.9087 14.0492 17.7959 14.0492 17.6604V14.8152C14.0492 14.6753 14.0753 14.5216 14.1273 14.3545C14.1793 14.1875 14.2645 14.0328 14.3829 13.8904C14.5011 13.7482 14.6548 13.6297 14.8441 13.5347C15.0332 13.4399 15.2651 13.3925 15.5396 13.3925H17.5267C17.6734 13.3925 17.8342 13.4174 18.0094 13.4671ZM18.0235 15.2894V14.8152C18.0235 14.7202 18.0082 14.6424 17.9773 14.5815C17.9466 14.5205 17.9065 14.472 17.8568 14.4359C17.8071 14.3997 17.7526 14.3748 17.6935 14.3613C17.6343 14.3478 17.5787 14.3409 17.5267 14.3409H15.5396C15.4402 14.3409 15.3586 14.3556 15.2948 14.385C15.2309 14.4145 15.18 14.4527 15.1422 14.5002C15.1043 14.5476 15.0784 14.5996 15.0641 14.6558C15.05 14.7124 15.0428 14.7654 15.0428 14.8151V15.2893H18.0235V15.2894Z" fill="white"/>
<path d="M24.4106 13.528C24.5053 13.6185 24.5525 13.7312 24.5525 13.8667V17.6604C24.5525 17.7552 24.5253 17.8433 24.4709 17.9245C24.4164 18.0059 24.3397 18.0646 24.2402 18.1006C24.1455 18.1367 24.0498 18.1457 23.9529 18.1277C23.8559 18.1098 23.7742 18.0646 23.708 17.9922L20.5784 15.0048V17.6604C20.5784 17.7958 20.5311 17.9088 20.4365 17.9991C20.3417 18.0894 20.2236 18.1345 20.0817 18.1345C19.9396 18.1345 19.8213 18.0894 19.7268 17.9991C19.632 17.9087 19.5848 17.7958 19.5848 17.6604V13.8667C19.5848 13.7718 19.612 13.6838 19.6665 13.6025C19.7209 13.5212 19.7977 13.4626 19.897 13.4264C19.9917 13.3904 20.0875 13.3813 20.1844 13.3993C20.2813 13.4174 20.3631 13.4627 20.4292 13.5348L23.559 16.5223V13.8667C23.559 13.7312 23.6062 13.6185 23.7009 13.528C23.7956 13.4378 23.9138 13.3925 24.0557 13.3925C24.1977 13.3925 24.3159 13.4377 24.4106 13.528Z" fill="white"/>
<path d="M13.25 21.16C13.6948 21.2864 14.1069 21.493 14.4857 21.7799C14.8645 22.067 15.1802 22.4402 15.4329 22.8992C15.6855 23.3585 15.8117 23.9211 15.8117 24.5869C15.8117 25.115 15.7274 25.577 15.5592 25.9732C15.3906 26.3692 15.1803 26.7108 14.9278 26.9978C15.1803 27.2849 15.3906 27.6264 15.5592 28.0224C15.7274 28.4185 15.8117 28.8808 15.8117 29.4087C15.8117 30.0747 15.6855 30.6373 15.4329 31.0964C15.1803 31.5556 14.8646 31.9288 14.4857 32.2156C14.1069 32.5028 13.6947 32.7095 13.25 32.8357C12.8048 32.9621 12.3958 33.0251 12.0232 33.0251H4.446C4.0852 33.0251 3.78451 32.9104 3.54402 32.6807C3.30318 32.4511 3.18323 32.164 3.18323 31.8196C3.18323 31.4752 3.30318 31.1884 3.54402 30.9585C3.78451 30.7289 4.0852 30.6141 4.446 30.6141H12.0232C12.1554 30.6141 12.2967 30.5969 12.4471 30.5624C12.5973 30.5279 12.7359 30.465 12.8622 30.373C12.9884 30.2813 13.0904 30.1578 13.1688 30.0029C13.2469 29.8479 13.2861 29.6498 13.2861 29.4087C13.2861 29.1677 13.2469 28.9696 13.1688 28.8147C13.0904 28.6597 12.9884 28.5365 12.8622 28.4444C12.7359 28.3528 12.5973 28.2894 12.4471 28.255C12.2967 28.2205 12.1554 28.2034 12.0232 28.2034H9.49742C9.13663 28.2034 8.83593 28.0889 8.59533 27.859C8.3546 27.6294 8.23454 27.3424 8.23454 26.9979C8.23454 26.6535 8.3546 26.3667 8.59533 26.1369C8.83593 25.9073 9.13663 25.7924 9.49742 25.7924H12.0232C12.1675 25.7924 12.3147 25.7752 12.4651 25.7407C12.6154 25.7062 12.7506 25.6434 12.8712 25.5513C12.9911 25.4596 13.0904 25.3361 13.1688 25.1812C13.2469 25.0262 13.2861 24.8282 13.2861 24.5871C13.2861 24.346 13.2469 24.1479 13.1688 23.993C13.0904 23.838 12.9884 23.7148 12.8622 23.6228C12.7359 23.5311 12.5973 23.4678 12.4471 23.4334C12.2967 23.3989 12.1554 23.3818 12.0232 23.3818H4.446C4.0852 23.3818 3.78451 23.2671 3.54402 23.0373C3.30318 22.8077 3.18323 22.5207 3.18323 22.1763C3.18323 21.8318 3.30318 21.5451 3.54402 21.3152C3.78451 21.0856 4.0852 20.9708 4.446 20.9708H12.0232C12.3958 20.9706 12.8048 21.0337 13.25 21.16Z" fill="white"/>
<path d="M27.3214 21.1599C27.7662 21.2864 28.1783 21.4929 28.5571 21.7799C28.9359 22.067 29.2516 22.4402 29.5044 22.8992C29.7569 23.3585 29.8831 23.9211 29.8831 24.5869V29.4086C29.8831 29.7762 29.817 30.1692 29.6847 30.5882C29.5522 31.0075 29.3358 31.3976 29.0352 31.7592C28.7345 32.1208 28.3434 32.4222 27.8626 32.6633C27.3815 32.9044 26.792 33.0249 26.0946 33.0249H21.0432C20.6582 33.0249 20.2464 32.962 19.8074 32.8355C19.3683 32.7093 18.9596 32.5028 18.5807 32.2155C18.2019 31.9287 17.8862 31.5555 17.6336 31.0963C17.381 30.6372 17.2548 30.0746 17.2548 29.4086V24.5869C17.2548 24.2311 17.3206 23.8406 17.4532 23.4159C17.5854 22.9913 17.8018 22.5979 18.1026 22.2363C18.4031 21.8746 18.7941 21.5733 19.2752 21.3321C19.7561 21.0911 20.3456 20.9706 21.0432 20.9706H26.0946C26.4672 20.9706 26.8762 21.0337 27.3214 21.1599ZM27.3574 29.4086V24.5869C27.3574 24.3457 27.3182 24.1476 27.2401 23.9927C27.1617 23.8377 27.0597 23.7145 26.9335 23.6226C26.8072 23.5308 26.6686 23.4676 26.5184 23.4332C26.3679 23.3987 26.2267 23.3815 26.0945 23.3815H21.0431C20.7905 23.3815 20.583 23.4189 20.4207 23.4934C20.2584 23.5682 20.1289 23.6656 20.0329 23.7862C19.9365 23.9067 19.8704 24.0388 19.8344 24.1822C19.7983 24.326 19.7803 24.4608 19.7803 24.587V29.4087C19.7803 29.6498 19.8192 29.8479 19.8976 30.0028C19.9757 30.1579 20.0749 30.2813 20.1953 30.373C20.3153 30.465 20.4508 30.528 20.6013 30.5624C20.7515 30.5969 20.8989 30.6141 21.0432 30.6141H26.0946C26.3471 30.6141 26.5547 30.5769 26.7169 30.5021C26.8794 30.4276 27.0084 30.3299 27.1048 30.2094C27.2009 30.0889 27.2672 29.957 27.3032 29.8134C27.3394 29.67 27.3574 29.5351 27.3574 29.4086Z" fill="white"/>
<path d="M33.0668 5.69426C33.0668 4.12062 31.7303 2.84494 30.0818 2.84494H2.98512C1.33655 2.84494 0.00012207 4.12062 0.00012207 5.69426V10.0438H33.0668V5.69426Z" fill="#0284C7"/>
<path d="M33.0666 10.0436H0V11.9408H33.0666V10.0436Z" fill="#246097"/>
<path d="M5.6605 6.89067C6.52036 6.89067 7.21742 6.22529 7.21742 5.40452C7.21742 4.58374 6.52036 3.91837 5.6605 3.91837C4.80063 3.91837 4.10358 4.58374 4.10358 5.40452C4.10358 6.22529 4.80063 6.89067 5.6605 6.89067Z" fill="#246097"/>
<path d="M11.0968 6.89067C11.9566 6.89067 12.6537 6.22529 12.6537 5.40452C12.6537 4.58374 11.9566 3.91837 11.0968 3.91837C10.2369 3.91837 9.53986 4.58374 9.53986 5.40452C9.53986 6.22529 10.2369 6.89067 11.0968 6.89067Z" fill="#246097"/>
<path d="M16.5331 6.89067C17.393 6.89067 18.09 6.22529 18.09 5.40452C18.09 4.58374 17.393 3.91837 16.5331 3.91837C15.6733 3.91837 14.9762 4.58374 14.9762 5.40452C14.9762 6.22529 15.6733 6.89067 16.5331 6.89067Z" fill="#246097"/>
<path d="M21.9695 6.89067C22.8293 6.89067 23.5264 6.22529 23.5264 5.40452C23.5264 4.58374 22.8293 3.91837 21.9695 3.91837C21.1096 3.91837 20.4125 4.58374 20.4125 5.40452C20.4125 6.22529 21.1096 6.89067 21.9695 6.89067Z" fill="#246097"/>
<path d="M27.4057 6.89067C28.2656 6.89067 28.9627 6.22529 28.9627 5.40452C28.9627 4.58374 28.2656 3.91837 27.4057 3.91837C26.5459 3.91837 25.8488 4.58374 25.8488 5.40452C25.8488 6.22529 26.5459 6.89067 27.4057 6.89067Z" fill="#246097"/>
<path d="M5.66046 6.02629C5.27313 6.02629 4.95898 5.72643 4.95898 5.3567V0.669588C4.95898 0.299864 5.27313 0 5.66046 0C6.04779 0 6.36193 0.299864 6.36193 0.669588V5.3567C6.36193 5.72643 6.04779 6.02629 5.66046 6.02629Z" fill="white"/>
<path d="M11.1552 6.02629C10.7679 6.02629 10.4537 5.72643 10.4537 5.3567V0.669588C10.4537 0.299864 10.7679 0 11.1552 0C11.5425 0 11.8567 0.299864 11.8567 0.669588V5.3567C11.8567 5.72643 11.5425 6.02629 11.1552 6.02629Z" fill="white"/>
<path d="M16.5331 6.02629C16.1457 6.02629 15.8316 5.72643 15.8316 5.3567V0.669588C15.8316 0.299864 16.1457 0 16.5331 0C16.9204 0 17.2346 0.299864 17.2346 0.669588V5.3567C17.2346 5.72643 16.9204 6.02629 16.5331 6.02629Z" fill="white"/>
<path d="M22.0279 6.02629C21.6406 6.02629 21.3264 5.72643 21.3264 5.3567V0.669588C21.3264 0.299864 21.6406 0 22.0279 0C22.4152 0 22.7294 0.299864 22.7294 0.669588V5.3567C22.7294 5.72643 22.4152 6.02629 22.0279 6.02629Z" fill="white"/>
<path d="M27.4057 6.02629C27.0184 6.02629 26.7042 5.72643 26.7042 5.3567V0.669588C26.7042 0.299864 27.0184 0 27.4057 0C27.793 0 28.1072 0.299864 28.1072 0.669588V5.3567C28.1072 5.72643 27.793 6.02629 27.4057 6.02629Z" fill="white"/>
</svg>
